<svg width="80" height="80" viewBox="0 0 80 80" fill="none" xmlns="http://www.w3.org/2000/svg">
<path d="M29.5 52.1666L59.1667 44.3333C60 44.111 60.6255 43.5966 61.0433 42.7899C61.4611 41.9833 61.5578 41.1644 61.3333 40.3333C61.1111 39.4999 60.6255 38.8755 59.8767 38.4599C59.1278 38.0444 58.3356 37.9466 57.5 38.1666L49.3333 40.3333L36 27.8333L31.3333 28.9999L39.3333 42.9999L31.3333 44.9999L27.1667 41.8333L24 42.6666L29.5 52.1666ZM66.6667 66.6666H13.3333C11.5 66.6666 9.92999 66.0133 8.62333 64.7066C7.31666 63.3999 6.66444 61.831 6.66666 59.9999V46.6666C8.5 46.6666 10.07 46.0133 11.3767 44.7066C12.6833 43.3999 13.3356 41.831 13.3333 39.9999C13.3333 38.1666 12.68 36.5966 11.3733 35.2899C10.0667 33.9833 8.49777 33.331 6.66666 33.3333V19.9999C6.66666 18.1666 7.32 16.5966 8.62666 15.2899C9.93333 13.9833 11.5022 13.331 13.3333 13.3333H66.6667C68.5 13.3333 70.07 13.9866 71.3767 15.2933C72.6833 16.5999 73.3355 18.1688 73.3333 19.9999V59.9999C73.3333 61.8333 72.68 63.4033 71.3733 64.7099C70.0667 66.0166 68.4978 66.6688 66.6667 66.6666Z" fill="#0066FF"/>
</svg>
