<svg width="80" height="80" viewBox="0 0 80 80" fill="none" xmlns="http://www.w3.org/2000/svg">
<path d="M15 15H75L67.5 47.5H22.5M67.5 57.5H25L12.5 5H5" stroke="#0066FF" stroke-width="5" stroke-linecap="round" stroke-linejoin="round"/>
<path d="M62.5 72.5C65.2614 72.5 67.5 70.2614 67.5 67.5C67.5 64.7386 65.2614 62.5 62.5 62.5C59.7386 62.5 57.5 64.7386 57.5 67.5C57.5 70.2614 59.7386 72.5 62.5 72.5Z" stroke="#0066FF" stroke-width="5" stroke-linecap="round" stroke-linejoin="round"/>
<path d="M30 72.5C32.7614 72.5 35 70.2614 35 67.5C35 64.7386 32.7614 62.5 30 62.5C27.2386 62.5 25 64.7386 25 67.5C25 70.2614 27.2386 72.5 30 72.5Z" stroke="#0066FF" stroke-width="5" stroke-linecap="round" stroke-linejoin="round"/>
</svg>
