<svg width="136" height="18" viewBox="0 0 136 18" fill="none" xmlns="http://www.w3.org/2000/svg">
<path d="M0 9.03714C0 7.30399 0.34663 5.76066 1.03989 4.40715C1.74966 3.05364 2.75653 2.0055 4.06052 1.26272C5.36451 0.503439 6.89959 0.123796 8.66575 0.123796C10.1843 0.123796 11.5378 0.412655 12.7263 0.990372C13.9312 1.55158 14.9051 2.35213 15.6479 3.39202C16.4072 4.43191 16.9106 5.64512 17.1582 7.03164H11.3645C11.1004 6.45392 10.7208 6.00825 10.2256 5.69464C9.74691 5.36451 9.19395 5.19945 8.56671 5.19945C7.64237 5.19945 6.90784 5.54608 6.36314 6.23934C5.83494 6.9326 5.57084 7.8652 5.57084 9.03714C5.57084 10.2091 5.83494 11.1417 6.36314 11.8349C6.90784 12.5282 7.64237 12.8748 8.56671 12.8748C9.19395 12.8748 9.74691 12.718 10.2256 12.4044C10.7208 12.0743 11.1004 11.6204 11.3645 11.0426H17.1582C16.9106 12.4292 16.4072 13.6424 15.6479 14.6823C14.9051 15.7221 13.9312 16.5309 12.7263 17.1087C11.5378 17.6699 10.1843 17.9505 8.66575 17.9505C6.89959 17.9505 5.36451 17.5791 4.06052 16.8363C2.75653 16.077 1.74966 15.0206 1.03989 13.6671C0.34663 12.3136 0 10.7703 0 9.03714Z" fill="#0066FF"/>
<path d="M27.6791 18C26.0285 18 24.5099 17.6121 23.1234 16.8363C21.7534 16.0605 20.664 14.9876 19.8552 13.6176C19.0464 12.2476 18.642 10.7043 18.642 8.98762C18.642 7.27098 19.0464 5.72765 19.8552 4.35763C20.664 2.98762 21.7534 1.92297 23.1234 1.16369C24.5099 0.387895 26.0285 0 27.6791 0C29.3298 0 30.8401 0.387895 32.2101 1.16369C33.5801 1.92297 34.6613 2.98762 35.4536 4.35763C36.2624 5.72765 36.6668 7.27098 36.6668 8.98762C36.6668 10.7043 36.2624 12.2476 35.4536 13.6176C34.6613 14.9876 33.5718 16.0605 32.1853 16.8363C30.8153 17.6121 29.3133 18 27.6791 18ZM27.6791 12.8748C28.7685 12.8748 29.6104 12.5282 30.2046 11.8349C30.7988 11.1252 31.0959 10.1761 31.0959 8.98762C31.0959 7.78267 30.7988 6.83356 30.2046 6.1403C29.6104 5.43054 28.7685 5.07565 27.6791 5.07565C26.5732 5.07565 25.7232 5.43054 25.1289 6.1403C24.5347 6.83356 24.2376 7.78267 24.2376 8.98762C24.2376 10.1761 24.5347 11.1252 25.1289 11.8349C25.7232 12.5282 26.5732 12.8748 27.6791 12.8748Z" fill="#0066FF"/>
<path d="M44.1462 0.297112V17.8267H38.6496V0.297112H44.1462Z" fill="#0066FF"/>
<path d="M63.4403 17.8267H57.9437L52.1253 9.01238V17.8267H46.6287V0.297112H52.1253L57.9437 9.25997V0.297112H63.4403V17.8267Z" fill="#0066FF"/>
<path d="M65.4283 9.03714C65.4283 7.30399 65.775 5.76066 66.4682 4.40715C67.178 3.05364 68.1849 2.0055 69.4889 1.26272C70.7929 0.503439 72.3279 0.123796 74.0941 0.123796C75.6127 0.123796 76.9662 0.412655 78.1546 0.990372C79.3596 1.55158 80.3334 2.35213 81.0762 3.39202C81.8355 4.43191 82.3389 5.64512 82.5865 7.03164H76.7929C76.5288 6.45392 76.1491 6.00825 75.6539 5.69464C75.1752 5.36451 74.6223 5.19945 73.995 5.19945C73.0707 5.19945 72.3362 5.54608 71.7915 6.23934C71.2633 6.9326 70.9992 7.8652 70.9992 9.03714C70.9992 10.2091 71.2633 11.1417 71.7915 11.8349C72.3362 12.5282 73.0707 12.8748 73.995 12.8748C74.6223 12.8748 75.1752 12.718 75.6539 12.4044C76.1491 12.0743 76.5288 11.6204 76.7929 11.0426H82.5865C82.3389 12.4292 81.8355 13.6424 81.0762 14.6823C80.3334 15.7221 79.3596 16.5309 78.1546 17.1087C76.9662 17.6699 75.6127 17.9505 74.0941 17.9505C72.3279 17.9505 70.7929 17.5791 69.4889 16.8363C68.1849 16.077 67.178 15.0206 66.4682 13.6671C65.775 12.3136 65.4283 10.7703 65.4283 9.03714Z" fill="#0066FF"/>
<path d="M95.8062 15.1774H89.963L89.0965 17.8267H83.3276L89.7402 0.297112H96.0786L102.466 17.8267H96.6728L95.8062 15.1774ZM94.4692 11.0426L92.8846 6.16506L91.3 11.0426H94.4692Z" fill="#0066FF"/>
<path d="M110.574 18C108.477 18 106.744 17.5131 105.374 16.5392C104.021 15.5488 103.286 14.1045 103.171 12.2063H109.014C109.096 13.2132 109.542 13.7166 110.351 13.7166C110.648 13.7166 110.895 13.6506 111.094 13.5186C111.308 13.37 111.415 13.1472 111.415 12.8501C111.415 12.4374 111.193 12.1073 110.747 11.8597C110.301 11.5956 109.608 11.2985 108.667 10.9684C107.545 10.5722 106.612 10.1843 105.869 9.80468C105.143 9.42503 104.516 8.87208 103.988 8.1458C103.459 7.41953 103.204 6.48693 103.22 5.34801C103.22 4.20908 103.509 3.24347 104.087 2.45117C104.681 1.64237 105.481 1.03164 106.488 0.618981C107.512 0.206327 108.659 0 109.93 0C112.076 0 113.776 0.495186 115.03 1.48556C116.301 2.47593 116.97 3.8707 117.036 5.66988H111.118C111.102 5.17469 110.978 4.81981 110.747 4.60523C110.516 4.39065 110.235 4.28336 109.905 4.28336C109.674 4.28336 109.484 4.36589 109.336 4.53095C109.187 4.67951 109.113 4.89409 109.113 5.17469C109.113 5.57084 109.327 5.90096 109.757 6.16506C110.202 6.41265 110.904 6.71802 111.861 7.08116C112.967 7.49381 113.875 7.88996 114.585 8.2696C115.311 8.64924 115.938 9.17744 116.466 9.85419C116.995 10.5309 117.259 11.381 117.259 12.4044C117.259 13.4773 116.995 14.4429 116.466 15.3012C115.938 16.1431 115.171 16.8033 114.164 17.282C113.157 17.7607 111.96 18 110.574 18Z" fill="#0066FF"/>
<path d="M135.407 0.297112V17.8267H129.911V10.9931H124.686V17.8267H119.19V0.297112H124.686V6.61073H129.911V0.297112H135.407Z" fill="#0066FF"/>
</svg>
